<svg id="レイヤー_1" data-name="レイヤー 1" xmlns="http://www.w3.org/2000/svg" viewBox="0 0 400 86.69"><path d="M2.5,88.05,6.32,66.26,43.38,30.11H14L17.78,8.54H81L77.63,27.41,38.55,65.93H71.79L67.85,88.05Z" transform="translate(-2.5 -3.16)"/><path d="M112.55,89.84A45.38,45.38,0,0,1,100,88.16a30.32,30.32,0,0,1-10.21-5,23.75,23.75,0,0,1-6.85-8.31,25,25,0,0,1-2.48-11.34,39.82,39.82,0,0,1,2.48-14A34,34,0,0,1,90,37.85a33.37,33.37,0,0,1,11.46-7.8A39.71,39.71,0,0,1,117,27.19a47,47,0,0,1,12.81,1.68,30.37,30.37,0,0,1,10.33,5.05,23.9,23.9,0,0,1,9.43,19.65,39.73,39.73,0,0,1-2.47,14A32.92,32.92,0,0,1,128.33,87,40.93,40.93,0,0,1,112.55,89.84Zm12.58-33.57a8.65,8.65,0,0,0-2.25-6.06c-1.5-1.65-3.7-2.48-6.62-2.48a10,10,0,0,0-4.66,1.07,12.08,12.08,0,0,0-3.6,2.81,11.85,11.85,0,0,0-2.3,4.1,15.62,15.62,0,0,0-.78,4.94,8.62,8.62,0,0,0,2.24,6.12q2.25,2.42,6.52,2.41a11,11,0,0,0,4.82-1,10.31,10.31,0,0,0,3.6-2.8,13.26,13.26,0,0,0,2.24-4.1A15.28,15.28,0,0,0,125.13,56.27Z" transform="translate(-2.5 -3.16)"/><path d="M152.87,88.05,167.8,3.16h25.71L178.58,88.05Z" transform="translate(-2.5 -3.16)"/><path d="M224.17,47.06l-3,16.62c-.07.45-.13,1-.17,1.57s-.05,1.09-.05,1.46c0,1.73.43,2.86,1.29,3.43a6.66,6.66,0,0,0,3.65.84,16.28,16.28,0,0,0,2.69-.23c.9-.14,1.65-.29,2.25-.44l-3,17.29a15.15,15.15,0,0,1-5.17,1.46,48.55,48.55,0,0,1-7.18.56,39.52,39.52,0,0,1-7.31-.67,19.4,19.4,0,0,1-6.4-2.36,13.08,13.08,0,0,1-4.54-4.6,14.47,14.47,0,0,1-1.75-7.53,27.45,27.45,0,0,1,.17-2.81c.12-1,.25-2,.4-2.92l3.93-21.67h-8.76L194.3,29h8.31L205,15.62h24.37L227,29h11.34l-3.14,18.08Z" transform="translate(-2.5 -3.16)"/><path d="M293.12,79a46.43,46.43,0,0,0-.62,5c-.11,1.73-.17,3.08-.17,4H270.78c0-.52,0-1.37.05-2.53s.09-2.11.17-2.86h-.22A19.19,19.19,0,0,1,263.37,88a25,25,0,0,1-9.22,1.63,22.7,22.7,0,0,1-6.28-.9A17.58,17.58,0,0,1,242.2,86a13.73,13.73,0,0,1-4.1-4.83A15,15,0,0,1,236.53,74q0-6.84,3.08-11.28a21.51,21.51,0,0,1,8.31-7A41.28,41.28,0,0,1,260,52.06,93.58,93.58,0,0,1,274.37,51a3.4,3.4,0,0,0,.11-.73v-.5a3.79,3.79,0,0,0-2-3.43,9.92,9.92,0,0,0-5.12-1.18,18,18,0,0,0-6.95,1.4,23.61,23.61,0,0,0-6.18,3.77l-11-12.58a31.61,31.61,0,0,1,6.12-4.55,48.14,48.14,0,0,1,7-3.31,42.36,42.36,0,0,1,7.3-2,39.51,39.51,0,0,1,7.08-.67q13.47,0,20.27,5.44T297.84,48a54.76,54.76,0,0,1-.9,9.32ZM273.7,63.79h-1.47a38.06,38.06,0,0,0-5.27.34,18.41,18.41,0,0,0-4.33,1.07,8.11,8.11,0,0,0-3,1.91,4.11,4.11,0,0,0-1.12,3c0,1.72.54,2.83,1.62,3.31a8.54,8.54,0,0,0,3.54.74,9.18,9.18,0,0,0,6.35-2.37,10.4,10.4,0,0,0,3.31-6.06Z" transform="translate(-2.5 -3.16)"/><path d="M340.17,88.05l-6.84-14-12.47,14H291.78L321,57.62,305.36,29h27.4l6.18,13,11.12-13h28.3L351.07,57.62l16.62,30.43Z" transform="translate(-2.5 -3.16)"/><path d="M387,89.4a15.87,15.87,0,0,1-5.67-1,12.2,12.2,0,0,1-4.27-2.64A12.08,12.08,0,0,1,374.37,82a10.86,10.86,0,0,1-1-4.5,16.6,16.6,0,0,1,1.13-6.12,14.83,14.83,0,0,1,3.2-5A15.15,15.15,0,0,1,382.68,63,15.73,15.73,0,0,1,389,61.77a15.14,15.14,0,0,1,5.51,1,12.36,12.36,0,0,1,4.2,2.64,13,13,0,0,1,2.76,3.81,10.44,10.44,0,0,1,1,4.49,16.81,16.81,0,0,1-1.12,6.13,15.34,15.34,0,0,1-3.15,5,14.54,14.54,0,0,1-4.88,3.37A15.78,15.78,0,0,1,387,89.4Z" transform="translate(-2.5 -3.16)"/></svg>